<svg width="24" height="24" viewBox="0 0 24 24" fill="none"
  xmlns="http://www.w3.org/2000/svg">
  <path d="M19 11H21M20 10V12M12 3.00019C12.132 3.00019 12.263 3.00019 12.393 3.00019C11.1084 4.19389 10.2826 5.80003 10.0593 7.53941C9.83602 9.27879 10.2293 11.0414 11.1708 12.5209C12.1122 14.0004 13.5424 15.1032 15.2126 15.6377C16.8829 16.1721 18.6876 16.1043 20.313 15.4462C19.6878 16.9507 18.6658 18.2572 17.3562 19.2264C16.0466 20.1957 14.4985 20.7912 12.8769 20.9496C11.2554 21.1079 9.62129 20.8231 8.14892 20.1256C6.67654 19.428 5.42114 18.3439 4.51661 16.9888C3.61209 15.6337 3.09238 14.0585 3.01291 12.4312C2.93345 10.8038 3.29721 9.18548 4.0654 7.7487C4.83359 6.31192 5.97739 5.11061 7.37479 4.27292C8.77219 3.43523 10.3708 2.99258 12 2.99219V3.00019ZM17 4C17 4.53043 17.2107 5.03914 17.5858 5.41421C17.9609 5.78929 18.4696 6 19 6C18.4696 6 17.9609 6.21071 17.5858 6.58579C17.2107 6.96086 17 7.46957 17 8C17 7.46957 16.7893 6.96086 16.4142 6.58579C16.0391 6.21071 15.5304 6 15 6C15.5304 6 16.0391 5.78929 16.4142 5.41421C16.7893 5.03914 17 4.53043 17 4Z" stroke="#000" stroke-width="2" stroke-linecap="round" stroke-linejoin="round"/>
</svg>
